<svg version="1.1" id="Capa_1" xmlns="http://www.w3.org/2000/svg" xmlns:xlink="http://www.w3.org/1999/xlink" x="0px" y="0px" viewBox="0 0 420 420" style="enable-background:new 0 0 420 420;" xml:space="preserve">
<g>
  <circle cx="192.019" cy="250.102" r="10.826"></circle>
  <circle cx="231.809" cy="250.102" r="10.826"></circle>
  <path d="M140.227,154.334l7.645,4.736l26.388,68.375c0.805,2.091,2.813,3.47,5.055,3.47h65.194c2.241,0,4.249-1.379,5.053-3.47
    l21.655-56.306c0.642-1.666,0.42-3.538-0.589-5.008c-1.01-1.47-2.68-2.352-4.465-2.352h-96.812l-5.566-14.21
    c-0.72-1.842-2.018-3.401-3.698-4.439l-10.234-6.34c-4.289-2.656-9.925-1.335-12.585,2.959
    C134.61,146.042,135.934,151.677,140.227,154.334z"></path>
  <path d="M412.747,301.983h-22.526V95.417c0-8.77-7.109-15.88-15.879-15.88H44.715c-8.77,0-15.88,7.11-15.88,15.88v206.566H7.252
    c-4.005,0-7.252,3.246-7.252,7.254c0,17.217,14.008,31.227,31.228,31.227h251.216v-13.502c0-4.803,3.894-8.697,8.697-8.697
    c4.804,0,8.697,3.895,8.697,8.697v13.502h14.264v-13.502c0-4.803,3.895-8.697,8.697-8.697c4.804,0,8.698,3.895,8.698,8.697v13.502
    h57.274c17.219,0,31.229-14.01,31.229-31.227C420,305.229,416.753,301.983,412.747,301.983z M362.592,291.116H56.463V107.165
    h306.129V291.116z"></path>
</g>
<g>
</g>
<g>
</g>
<g>
</g>
<g>
</g>
<g>
</g>
<g>
</g>
<g>
</g>
<g>
</g>
<g>
</g>
<g>
</g>
<g>
</g>
<g>
</g>
<g>
</g>
<g>
</g>
<g>
</g>
</svg>