<svg version="1.1" id="Layer_1" xmlns="http://www.w3.org/2000/svg" xmlns:xlink="http://www.w3.org/1999/xlink" x="0px" y="0px" viewBox="0 0 512 512" style="enable-background:new 0 0 512 512;" xml:space="preserve">
<g>
  <g>
    <path d="M501.328,245.336h-10.906c-5.578-124.656-108.391-224-234.422-224s-228.852,99.344-234.43,224H10.664
      C4.773,245.336,0,250.109,0,256s4.773,10.664,10.664,10.664H21.57c5.578,124.656,108.398,224,234.43,224
      s228.844-99.344,234.422-224h10.906c5.891,0,10.672-4.773,10.672-10.664S507.219,245.336,501.328,245.336z M452.562,339.031
      c-10.734,25.398-26.125,48.219-45.719,67.82c-19.594,19.594-42.406,34.984-67.812,45.727
      c-26.289,11.117-54.227,16.758-83.031,16.758c-28.812,0-56.75-5.641-83.039-16.758c-25.398-10.742-48.219-26.133-67.812-45.727
      c-19.602-19.602-34.984-42.422-45.727-67.82C48.297,312.742,42.664,284.812,42.664,256s5.633-56.742,16.758-83.031
      c10.742-25.398,26.125-48.219,45.727-67.82c19.594-19.594,42.414-34.984,67.812-45.727C199.25,48.305,227.188,42.664,256,42.664
      c28.805,0,56.742,5.641,83.031,16.758c25.406,10.742,48.219,26.133,67.812,45.727c19.594,19.602,34.984,42.422,45.719,67.82
      c11.125,26.289,16.766,54.219,16.766,83.031S463.688,312.742,452.562,339.031z"></path>
  </g>
</g>
<g>
  <g>
    <path d="M255.992,64c0,0,0,0-0.008,0C149.953,64.008,64,149.961,63.992,256H64c0,5.891,4.773,10.664,10.664,10.664
      S85.328,261.891,85.328,256v-0.008c0-23.047,4.508-45.391,13.406-66.414c8.594-20.32,20.898-38.578,36.578-54.258
      C151,119.641,169.25,107.328,189.57,98.734c21.023-8.891,43.375-13.398,66.422-13.398c5.898,0,10.672-4.781,10.672-10.672
      S261.891,64,255.992,64z"></path>
  </g>
</g>
<g>
  <g>
    <path d="M289.008,156.445l-60.555,105.969l-31.883-53.141l-79.242,132.062h66.031h92.445h118.852L289.008,156.445z M195.547,320
      h-40.539l41.562-69.266l19.75,32.922L195.547,320z M220.125,320l68.883-120.555L357.906,320H220.125z"></path>
  </g>
</g>
<g>
</g>
<g>
</g>
<g>
</g>
<g>
</g>
<g>
</g>
<g>
</g>
<g>
</g>
<g>
</g>
<g>
</g>
<g>
</g>
<g>
</g>
<g>
</g>
<g>
</g>
<g>
</g>
<g>
</g>
</svg>