<svg version="1.1" id="Layer_1" xmlns="http://www.w3.org/2000/svg" xmlns:xlink="http://www.w3.org/1999/xlink" x="0px" y="0px" viewBox="0 0 512 512" style="enable-background:new 0 0 512 512;" xml:space="preserve">
<g>
  <g>
    <path d="M501.344,32H10.656C4.781,32,0,36.773,0,42.664V384c0,5.891,4.781,10.664,10.656,10.664h177.031l-12.766,64h-4.266
      c-5.875,0-10.656,4.781-10.656,10.672S164.781,480,170.656,480h170.688c5.875,0,10.656-4.773,10.656-10.664
      s-4.781-10.672-10.656-10.672h-4.281l-12.781-64h177.062c5.875,0,10.656-4.773,10.656-10.664V42.664
      C512,36.773,507.219,32,501.344,32z M196.688,458.665L196.688,458.665l12.75-63.915l93.094-0.023l12.781,63.938H196.688z
       M490.656,373.336H256H21.344V352H256h234.656V373.336z M64,330.664v-64h170.656v64H64z M490.656,330.664H256v-85.328H42.656
      v85.328H21.344V53.336h469.312V330.664z"></path>
  </g>
</g>
<g>
  <g>
    <path d="M256,352c-5.89,0-10.656,4.773-10.656,10.664s4.766,10.672,10.656,10.672s10.656-4.781,10.656-10.672S261.89,352,256,352z
      "></path>
  </g>
</g>
<g>
  <g>
    <path d="M437.344,245.336H288c-5.891,0-10.656,4.773-10.656,10.664s4.766,10.664,10.656,10.664h149.344
      c5.875,0,10.656-4.773,10.656-10.664S443.219,245.336,437.344,245.336z"></path>
  </g>
</g>
<g>
  <g>
    <path d="M394.656,138.664H117.344c-5.906,0-10.688,4.781-10.688,10.672S111.438,160,117.344,160h277.312
      c5.906,0,10.688-4.773,10.688-10.664S400.563,138.664,394.656,138.664z"></path>
  </g>
</g>
<g>
  <g>
    <path d="M42.656,74.664V224h426.688V74.664H42.656z M448,202.664H64V96h384V202.664z"></path>
  </g>
</g>
<g>
  <g>
    <path d="M437.344,288H288c-5.891,0-10.656,4.773-10.656,10.664c0,5.898,4.766,10.672,10.656,10.672h149.344
      c5.875,0,10.656-4.773,10.656-10.672C448,292.773,443.219,288,437.344,288z"></path>
  </g>
</g>
<g>
</g>
<g>
</g>
<g>
</g>
<g>
</g>
<g>
</g>
<g>
</g>
<g>
</g>
<g>
</g>
<g>
</g>
<g>
</g>
<g>
</g>
<g>
</g>
<g>
</g>
<g>
</g>
<g>
</g>
</svg>